<svg width="812" height="226" viewBox="0 0 812 226" fill="none" xmlns="http://www.w3.org/2000/svg">
<path d="M103.89 120.275C103.89 120.275 80.3228 157.253 45.4641 134.043C17.8922 115.686 30.3652 80.2812 30.3652 80.2812L36.6804 83.7168C36.6804 83.7168 28.3957 115.686 48.7464 128.798C68.8805 141.773 88.3712 128.431 88.7848 128.149C88.3646 128.385 68.2503 139.819 50.0594 128.143C31.6781 116.341 38.0393 84.4576 38.0393 84.4576L48.6742 90.2403C48.6742 90.2403 42.8382 116.997 62.5324 122.242C82.2266 127.487 88.2596 111.778 88.2596 111.778L103.89 120.275Z" fill="white" style="fill:white;fill-opacity:1;"/>
<path d="M73.4696 103.915C73.4696 103.915 71.0915 109.385 65.8216 107.401C59.9061 105.172 63.8586 98.657 63.8388 98.6504L73.4696 103.915Z" fill="white" style="fill:white;fill-opacity:1;"/>
<path d="M176.666 134.043C141.807 157.253 118.24 120.275 118.24 120.275L133.871 111.778C133.871 111.778 139.904 127.487 159.598 122.242C179.292 116.997 173.456 90.2403 173.456 90.2403L184.091 84.4576C184.091 84.4576 190.452 116.341 172.071 128.143C153.88 139.819 133.766 128.385 133.345 128.149C133.759 128.431 153.25 141.773 173.384 128.798C193.734 115.686 185.45 83.7168 185.45 83.7168L191.765 80.2812C191.765 80.2812 204.238 115.686 176.666 134.043Z" fill="white" style="fill:white;fill-opacity:1;"/>
<path d="M156.305 107.401C151.038 109.385 148.661 103.915 148.661 103.915L158.286 98.6504C158.286 98.6504 162.217 105.172 156.305 107.401Z" fill="white" style="fill:white;fill-opacity:1;"/>
<path d="M148.676 52.7428C131.819 59.2558 111.229 78.0383 111.229 78.0383C111.229 78.0383 90.6393 59.2558 73.7818 52.7428C73.7818 52.7428 87.2033 45.6969 111.229 45.9601C135.255 45.6969 148.676 52.7428 148.676 52.7428Z" fill="url(#paint0_linear_5199_55)" style=""/>
<path d="M190.843 62.3408C236.92 40.6307 218.489 0.5 218.489 0.5C218.489 0.5 217.831 28.131 171.755 49.1832C125.678 70.2353 113.83 85.3666 112.513 87.3402L111.065 89.0442L109.617 87.3402C108.3 85.3666 96.4522 70.2353 50.3755 49.1832C4.29886 28.131 3.64062 0.5 3.64062 0.5C3.64062 0.5 -14.79 40.6307 31.2866 62.3408C77.3633 84.0508 90.0272 86.1513 105.522 114.44C105.522 114.44 48.7299 86.3534 23.3878 68.2617C23.3878 68.2617 6.27358 106.419 26.679 140.629C26.679 140.629 27.9954 134.05 29.9701 130.76C29.9701 130.76 31.2866 142.602 37.869 152.47C37.869 152.47 37.869 144.576 39.1855 141.286C39.1855 141.286 50.7046 181.746 90.1989 195.562C90.1989 195.562 82.3001 190.299 78.3506 181.088C78.3506 181.088 63.5271 176.641 54.812 155.523C55.1938 156.036 67.3251 172.615 77.6924 177.799C77.6924 177.799 71.7682 164.641 76.3759 153.457C76.3759 153.457 78.3506 175.167 94.8066 189.641C107.406 200.721 110.787 223.771 110.892 225.5C110.899 223.763 111.592 203.476 127.324 189.641C143.779 175.167 145.754 153.457 145.754 153.457C150.362 164.641 144.438 177.799 144.438 177.799C154.805 172.615 166.936 156.036 167.318 155.523C158.603 176.641 143.779 181.088 143.779 181.088C139.83 190.299 131.931 195.562 131.931 195.562C171.425 181.746 182.945 141.286 182.945 141.286C184.261 144.576 184.261 152.47 184.261 152.47C190.843 142.602 192.16 130.76 192.16 130.76C194.135 134.05 195.451 140.629 195.451 140.629C215.857 106.419 198.742 68.2617 198.742 68.2617C173.4 86.3534 117.028 114.44 117.028 114.44C132.523 86.1513 144.767 84.0508 190.843 62.3408ZM63.8628 98.7018L73.4863 103.939C73.4863 103.939 71.11 109.379 65.8441 107.406C59.9331 105.189 63.8826 98.7084 63.8628 98.7018ZM45.4387 134.379C17.7927 115.958 30.2993 80.4325 30.2993 80.4325L36.6315 83.8798C36.6315 83.8798 28.3245 115.958 48.7299 129.116C68.9181 142.135 88.4612 128.747 88.8759 128.464C88.4546 128.701 68.2862 140.175 50.0464 128.458C31.6157 116.616 37.9941 84.6232 37.9941 84.6232L48.6575 90.4257C48.6575 90.4257 42.8058 117.274 62.5529 122.537C82.3001 127.8 88.3493 112.037 88.3493 112.037L104.022 120.563C104.022 120.563 80.3912 157.668 45.4387 134.379ZM158.267 98.7018C158.267 98.7018 162.197 105.189 156.286 107.406C151.02 109.379 148.644 103.939 148.644 103.939L158.267 98.7018ZM133.781 112.037C133.781 112.037 139.83 127.8 159.577 122.537C179.324 117.274 173.473 90.4257 173.473 90.4257L184.136 84.6232C184.136 84.6232 190.514 116.616 172.084 128.458C153.844 140.175 133.676 128.701 133.254 128.464C133.669 128.747 153.212 142.135 173.4 129.116C193.806 115.958 185.499 83.8798 185.499 83.8798L191.831 80.4325C191.831 80.4325 204.337 115.958 176.691 134.379C141.739 157.668 118.108 120.563 118.108 120.563L133.781 112.037ZM121.59 141.615C121.59 141.615 132.78 155.431 123.565 170.562C114.35 185.693 113.369 183.483 111.065 191.285C108.761 183.483 107.78 185.693 98.5651 170.562C89.3498 155.431 100.54 141.615 100.54 141.615L111.065 172.865L112.072 170.24L112.25 169.7L121.59 141.615Z" fill="url(#paint1_linear_5199_55)" style=""/>
<path d="M101.594 140.313L110.883 168.102L119.962 140.313L110.883 127.924L101.594 140.313Z" fill="white" style="fill:white;fill-opacity:1;"/>
<path d="M338.91 188.5H265.97V37.1999H338.91C387.461 37.1999 418.173 65.4275 418.173 112.85C418.173 160.272 387.461 188.5 338.91 188.5ZM338.91 67.6857H299.843V158.014H338.91C369.621 158.014 382.042 149.207 382.042 112.85C382.042 76.4927 369.621 67.6857 338.91 67.6857ZM488.645 190.758C450.03 190.758 424.06 167.724 424.06 132.045C424.06 95.9133 450.03 73.1054 488.645 73.1054C527.26 73.1054 553.23 95.9133 553.23 132.045C553.23 167.724 527.26 190.758 488.645 190.758ZM488.645 160.724C511.453 160.724 519.583 151.917 519.583 132.045C519.583 112.172 511.453 102.914 488.645 102.914C465.611 102.914 457.708 112.172 457.708 132.045C457.708 151.917 465.611 160.724 488.645 160.724ZM622.841 190.758C584 190.758 559.159 167.724 559.159 132.045C559.159 95.9133 584 73.1054 622.841 73.1054C659.198 73.1054 684.038 92.526 684.038 121.883V125.044H650.391V123.238C650.391 108.785 639.778 103.591 622.164 103.591C602.065 103.591 592.807 111.043 592.807 132.045C592.807 152.82 602.065 160.272 622.164 160.272C639.778 160.272 650.391 155.078 650.391 140.626V138.819H684.038V141.981C684.038 171.112 659.198 190.758 622.841 190.758ZM751.229 190.758C713.065 190.758 692.064 175.854 692.064 149.659V148.981H725.937V151.014C725.937 161.176 732.26 163.885 751.455 163.885C769.521 163.885 773.811 160.95 773.811 154.175C773.811 147.852 770.424 146.046 757.1 144.239L725.26 140.4C702.678 137.916 690.032 127.754 690.032 108.785C690.032 88.9129 706.968 73.1054 745.809 73.1054C782.844 73.1054 803.845 87.1063 803.845 114.656V115.334H769.972V113.979C769.972 104.72 765.456 99.9781 744.68 99.9781C727.744 99.9781 723.453 102.914 723.453 110.14C723.453 116.011 726.615 118.495 741.519 120.302L765.682 123.238C795.942 126.625 807.233 136.787 807.233 155.53C807.233 176.757 786.231 190.758 751.229 190.758Z" fill="url(#paint2_linear_5199_55)" style=""/>
<defs>
<linearGradient id="paint0_linear_5199_55" x1="37.6069" y1="33.3652" x2="296.561" y2="181.468" gradientUnits="userSpaceOnUse">
<stop stop-color="#6411AD" style="stop-color:#6411AD;stop-color:color(display-p3 0.3922 0.0667 0.6784);stop-opacity:1;"/>
<stop offset="1" stop-color="#EA698B" style="stop-color:#EA698B;stop-color:color(display-p3 0.9176 0.4118 0.5451);stop-opacity:1;"/>
</linearGradient>
<linearGradient id="paint1_linear_5199_55" x1="37.6069" y1="33.3652" x2="296.561" y2="181.468" gradientUnits="userSpaceOnUse">
<stop stop-color="#6411AD" style="stop-color:#6411AD;stop-color:color(display-p3 0.3922 0.0667 0.6784);stop-opacity:1;"/>
<stop offset="1" stop-color="#EA698B" style="stop-color:#EA698B;stop-color:color(display-p3 0.9176 0.4118 0.5451);stop-opacity:1;"/>
</linearGradient>
<linearGradient id="paint2_linear_5199_55" x1="347.697" y1="124.269" x2="527.706" y2="425.537" gradientUnits="userSpaceOnUse">
<stop stop-color="#A1399E" style="stop-color:#A1399E;stop-color:color(display-p3 0.6314 0.2235 0.6196);stop-opacity:1;"/>
<stop offset="1" stop-color="#D475B3" style="stop-color:#D475B3;stop-color:color(display-p3 0.8314 0.4588 0.7020);stop-opacity:1;"/>
</linearGradient>
</defs>
</svg>
